rotated_Sprint_06300001_forces_filt50Hz.mot
version=1
nRows=48
nColumns=19
inDegrees=yes
endheader
time	R_ground_force_vx	R_ground_force_vy	R_ground_force_vz	R_ground_force_px	R_ground_force_py	R_ground_force_pz	R_ground_torque_x	R_ground_torque_y	R_ground_torque_z	L_ground_force_vx	L_ground_force_vy	L_ground_force_vz	L_ground_force_px	L_ground_force_py	L_ground_force_pz	L_ground_torque_x	L_ground_torque_y	L_ground_torque_z	
2.692000	  0.000000	  0.000000	  0.000000	  1.152813	  0.000000	 -0.150670	  0.000000	  0.000000	  0.000000	  0.000000	  0.000000	  0.000000	  0.104525	  0.000000	 -0.285289	  0.000000	  0.000000	  0.000000
2.692500	  0.000000	  0.000000	  0.000000	  1.153828	  0.000000	 -0.150279	  0.000000	  0.000000	  0.000000	  0.000000	  0.000000	  0.000000	  0.103668	  0.000000	 -0.287679	  0.000000	  0.000000	  0.000000
2.693000	  0.000000	  0.000000	  0.000000	  1.154843	  0.000000	 -0.149888	  0.000000	  0.000000	  0.000000	  0.000000	  0.000000	  0.000000	  0.102812	  0.000000	 -0.290069	  0.000000	  0.000000	  0.000000
2.693500	  0.000000	  0.000000	  0.000000	  1.155857	  0.000000	 -0.149496	  0.000000	  0.000000	  0.000000	  0.000000	  0.000000	  0.000000	  0.101956	  0.000000	 -0.292459	  0.000000	  0.000000	  0.000000
2.694000	  0.000000	  0.000000	  0.000000	  1.156872	  0.000000	 -0.149105	  0.000000	  0.000000	  0.000000	  0.000000	  0.000000	  0.000000	  0.101099	  0.000000	 -0.294850	  0.000000	  0.000000	  0.000000
2.694500	  0.000000	  0.000000	  0.000000	  1.157886	  0.000000	 -0.148713	  0.000000	  0.000000	  0.000000	  0.000000	  0.000000	  0.000000	  0.100242	  0.000000	 -0.297240	  0.000000	  0.000000	  0.000000
2.695000	  0.000000	  0.000000	  0.000000	  1.158901	  0.000000	 -0.148322	  0.000000	  0.000000	  0.000000	  0.000000	  0.000000	  0.000000	  0.099386	  0.000000	 -0.299630	  0.000000	  0.000000	  0.000000
2.695500	  0.000000	  0.000000	  0.000000	  1.159598	  0.000000	 -0.147979	  0.000000	  0.000000	  0.000000	  0.000000	  0.000000	  0.000000	  0.098750	  0.000000	 -0.302066	  0.000000	  0.000000	  0.000000
2.696000	  0.000000	  0.000000	  0.000000	  1.160294	  0.000000	 -0.147637	  0.000000	  0.000000	  0.000000	  0.000000	  0.000000	  0.000000	  0.098114	  0.000000	 -0.304502	  0.000000	  0.000000	  0.000000
2.696500	  0.000000	  0.000000	  0.000000	  1.160991	  0.000000	 -0.147295	  0.000000	  0.000000	  0.000000	  0.000000	  0.000000	  0.000000	  0.097478	  0.000000	 -0.306938	  0.000000	  0.000000	  0.000000
2.697000	  0.000000	  0.000000	  0.000000	  1.161687	  0.000000	 -0.146952	  0.000000	  0.000000	  0.000000	  0.000000	  0.000000	  0.000000	  0.096842	  0.000000	 -0.309374	  0.000000	  0.000000	  0.000000
2.697500	  0.000000	  0.000000	  0.000000	  1.162384	  0.000000	 -0.146610	  0.000000	  0.000000	  0.000000	  0.000000	  0.000000	  0.000000	  0.096206	  0.000000	 -0.311809	  0.000000	  0.000000	  0.000000
2.698000	  0.000000	  0.000000	  0.000000	  1.163081	  0.000000	 -0.146267	  0.000000	  0.000000	  0.000000	  0.000000	  0.000000	  0.000000	  0.095569	  0.000000	 -0.314245	  0.000000	  0.000000	  0.000000
2.698500	  0.000000	  0.000000	  0.000000	  1.163777	  0.000000	 -0.145924	  0.000000	  0.000000	  0.000000	  0.000000	  0.000000	  0.000000	  0.094933	  0.000000	 -0.316681	  0.000000	  0.000000	  0.000000
2.699000	  0.000000	  0.000000	  0.000000	  1.164474	  0.000000	 -0.145582	  0.000000	  0.000000	  0.000000	  0.000000	  0.000000	  0.000000	  0.094297	  0.000000	 -0.319117	  0.000000	  0.000000	  0.000000
2.699500	  0.000000	  0.000000	  0.000000	  1.165170	  0.000000	 -0.145240	  0.000000	  0.000000	  0.000000	  0.000000	  0.000000	  0.000000	  0.093661	  0.000000	 -0.321553	  0.000000	  0.000000	  0.000000
2.700000	  0.000000	  0.000000	  0.000000	  1.165867	  0.000000	 -0.144897	  0.000000	  0.000000	  0.000000	  0.000000	  0.000000	  0.000000	  0.093025	  0.000000	 -0.323989	  0.000000	  0.000000	  0.000000
2.700500	  0.000000	  0.000000	  0.000000	  1.166244	  0.000000	 -0.144609	  0.000000	  0.000000	  0.000000	  0.000000	  0.000000	  0.000000	  0.092640	  0.000000	 -0.326360	  0.000000	  0.000000	  0.000000
2.701000	  0.000000	  0.000000	  0.000000	  1.166621	  0.000000	 -0.144320	  0.000000	  0.000000	  0.000000	  0.000000	  0.000000	  0.000000	  0.092255	  0.000000	 -0.328731	  0.000000	  0.000000	  0.000000
2.701500	  0.000000	  0.000000	  0.000000	  1.166999	  0.000000	 -0.144032	  0.000000	  0.000000	  0.000000	  0.000000	  0.000000	  0.000000	  0.091870	  0.000000	 -0.331102	  0.000000	  0.000000	  0.000000
2.702000	  0.000000	  0.000000	  0.000000	  1.167376	  0.000000	 -0.143744	  0.000000	  0.000000	  0.000000	  0.000000	  0.000000	  0.000000	  0.091485	  0.000000	 -0.333473	  0.000000	  0.000000	  0.000000
2.702500	  0.000000	  0.000000	  0.000000	  1.167753	  0.000000	 -0.143456	  0.000000	  0.000000	  0.000000	  0.000000	  0.000000	  0.000000	  0.091100	  0.000000	 -0.335843	  0.000000	  0.000000	  0.000000
2.703000	  0.000000	  0.000000	  0.000000	  1.168130	  0.000000	 -0.143167	  0.000000	  0.000000	  0.000000	  0.000000	  0.000000	  0.000000	  0.090714	  0.000000	 -0.338214	  0.000000	  0.000000	  0.000000
2.703500	  0.000000	  0.000000	  0.000000	  1.168507	  0.000000	 -0.142879	  0.000000	  0.000000	  0.000000	  0.000000	  0.000000	  0.000000	  0.090329	  0.000000	 -0.340585	  0.000000	  0.000000	  0.000000
2.704000	  0.000000	  0.000000	  0.000000	  1.168885	  0.000000	 -0.142591	  0.000000	  0.000000	  0.000000	  0.000000	  0.000000	  0.000000	  0.089944	  0.000000	 -0.342956	  0.000000	  0.000000	  0.000000
2.704500	  0.000000	  0.000000	  0.000000	  1.169262	  0.000000	 -0.142302	  0.000000	  0.000000	  0.000000	  0.000000	  0.000000	  0.000000	  0.089559	  0.000000	 -0.345327	  0.000000	  0.000000	  0.000000
2.705000	  0.000000	  0.000000	  0.000000	  1.169639	  0.000000	 -0.142014	  0.000000	  0.000000	  0.000000	  0.000000	  0.000000	  0.000000	  0.089174	  0.000000	 -0.347698	  0.000000	  0.000000	  0.000000
2.705500	  0.000000	  0.000000	  0.000000	  1.169745	  0.000000	 -0.141754	  0.000000	  0.000000	  0.000000	  0.000000	  0.000000	  0.000000	  0.089038	  0.000000	 -0.350043	  0.000000	  0.000000	  0.000000
2.706000	  0.000000	  0.000000	  0.000000	  1.169851	  0.000000	 -0.141494	  0.000000	  0.000000	  0.000000	  0.000000	  0.000000	  0.000000	  0.088901	  0.000000	 -0.352389	  0.000000	  0.000000	  0.000000
2.706500	  0.000000	  0.000000	  0.000000	  1.169958	  0.000000	 -0.141234	  0.000000	  0.000000	  0.000000	  0.000000	  0.000000	  0.000000	  0.088764	  0.000000	 -0.354735	  0.000000	  0.000000	  0.000000
2.707000	  0.000000	  0.000000	  0.000000	  1.170064	  0.000000	 -0.140974	  0.000000	  0.000000	  0.000000	  0.000000	  0.000000	  0.000000	  0.088628	  0.000000	 -0.357080	  0.000000	  0.000000	  0.000000
2.707500	  0.000000	  0.000000	  0.000000	  1.170170	  0.000000	 -0.140714	  0.000000	  0.000000	  0.000000	  0.000000	  0.000000	  0.000000	  0.088492	  0.000000	 -0.359426	  0.000000	  0.000000	  0.000000
2.708000	  0.000000	  0.000000	  0.000000	  1.170276	  0.000000	 -0.140455	  0.000000	  0.000000	  0.000000	  0.000000	  0.000000	  0.000000	  0.088355	  0.000000	 -0.361771	  0.000000	  0.000000	  0.000000
2.708500	  0.000000	  0.000000	  0.000000	  1.170382	  0.000000	 -0.140195	  0.000000	  0.000000	  0.000000	  0.000000	  0.000000	  0.000000	  0.088219	  0.000000	 -0.364116	  0.000000	  0.000000	  0.000000
2.709000	  0.000000	  0.000000	  0.000000	  1.170489	  0.000000	 -0.139935	  0.000000	  0.000000	  0.000000	  0.000000	  0.000000	  0.000000	  0.088082	  0.000000	 -0.366462	  0.000000	  0.000000	  0.000000
2.709500	  0.000000	  0.000000	  0.000000	  1.170595	  0.000000	 -0.139675	  0.000000	  0.000000	  0.000000	  0.000000	  0.000000	  0.000000	  0.087946	  0.000000	 -0.368807	  0.000000	  0.000000	  0.000000
2.710000	  0.000000	  0.000000	  0.000000	  1.170701	  0.000000	 -0.139415	  0.000000	  0.000000	  0.000000	  0.000000	  0.000000	  0.000000	  0.087809	  0.000000	 -0.371153	  0.000000	  0.000000	  0.000000
2.710500	  0.000000	  0.000000	  0.000000	  1.170504	  0.000000	 -0.139123	  0.000000	  0.000000	  0.000000	  0.000000	  0.000000	  0.000000	  0.087911	  0.000000	 -0.373398	  0.000000	  0.000000	  0.000000
2.711000	  0.000000	  0.000000	  0.000000	  1.170307	  0.000000	 -0.138830	  0.000000	  0.000000	  0.000000	  0.000000	  0.000000	  0.000000	  0.088014	  0.000000	 -0.375642	  0.000000	  0.000000	  0.000000
2.711500	  0.000000	  0.000000	  0.000000	  1.170110	  0.000000	 -0.138538	  0.000000	  0.000000	  0.000000	  0.000000	  0.000000	  0.000000	  0.088116	  0.000000	 -0.377887	  0.000000	  0.000000	  0.000000
2.712000	  0.000000	  0.000000	  0.000000	  1.169913	  0.000000	 -0.138246	  0.000000	  0.000000	  0.000000	  0.000000	  0.000000	  0.000000	  0.088218	  0.000000	 -0.380131	  0.000000	  0.000000	  0.000000
2.712500	  0.000000	  0.000000	  0.000000	  1.169717	  0.000000	 -0.137954	  0.000000	  0.000000	  0.000000	  0.000000	  0.000000	  0.000000	  0.088320	  0.000000	 -0.382376	  0.000000	  0.000000	  0.000000
2.713000	  0.000000	  0.000000	  0.000000	  1.169520	  0.000000	 -0.137661	  0.000000	  0.000000	  0.000000	  0.000000	  0.000000	  0.000000	  0.088423	  0.000000	 -0.384621	  0.000000	  0.000000	  0.000000
2.713500	  0.000000	  0.000000	  0.000000	  1.169323	  0.000000	 -0.137369	  0.000000	  0.000000	  0.000000	  0.000000	  0.000000	  0.000000	  0.088525	  0.000000	 -0.386865	  0.000000	  0.000000	  0.000000
2.714000	  0.000000	  0.000000	  0.000000	  1.169126	  0.000000	 -0.137077	  0.000000	  0.000000	  0.000000	  0.000000	  0.000000	  0.000000	  0.088627	  0.000000	 -0.389110	  0.000000	  0.000000	  0.000000
2.714500	  0.000000	  0.000000	  0.000000	  1.168929	  0.000000	 -0.136784	  0.000000	  0.000000	  0.000000	  0.000000	  0.000000	  0.000000	  0.088730	  0.000000	 -0.391354	  0.000000	  0.000000	  0.000000
2.715000	  0.000000	  0.000000	  0.000000	  1.168732	  0.000000	 -0.136492	  0.000000	  0.000000	  0.000000	  0.000000	  0.000000	  0.000000	  0.088832	  0.000000	 -0.393599	  0.000000	  0.000000	  0.000000
2.715500	  0.000000	  0.000000	  0.000000	  1.168283	  0.000000	 -0.136177	  0.000000	  0.000000	  0.000000	  0.000000	  0.000000	  0.000000	  0.089156	  0.000000	 -0.395712	  0.000000	  0.000000	  0.000000
